# xmcd CD database file
#
# Track frame offsets:
#	150
#	22759
#	46366
#	57421
#	69600
#	84983
#	107587
#	121202
#	139999
#	156560
#	176847
#	198313
#	216410
#	230629
#	250123
#	287525
#
# Disc length: 4176 seconds
#
# Revision: 6
# Processed by: cddbd v1.5.1PL2 Copyright (c) Steve Scherf et al.
# Submitted via: CDex 1.51
#
DISCID=e9104e10
DTITLE=Giants - Dutch Jazz Giants Vol 10
DYEAR=1999
DGENRE=Jazz
TTITLE0=The Skymasters - I'm Old Fashioned
TTITLE1=The Skymasters - Ne Um Talvez
TTITLE2=The Millers - My Blue Heaven
TTITLE3=Rogier van Otterloo - Here's That Rainy Day
TTITLE4=Rogier van Otterloo - Poor Butterfly
TTITLE5=Dutch Swing College Band - Sweet Georgia Brown
TTITLE6=Dutch Swing College Band - Up A Lazy River
TTITLE7=Eddy Doorenbos - The Good Life
TTITLE8=Eddy Doorenbos - Whatch What Happens
TTITLE9=The Skymasters - I Let A Song Go Out Of My Heart
TTITLE10=The Skymasters - I Want To Be Happy
TTITLE11=Rias Big Band - Nature Boy
TTITLE12=The Millers - Stompin' At The Savoy
TTITLE13=Edwin Rutten - Love Locked Out
TTITLE14=Jazz Orkest Rob Pronk - Don't You Ever Learn
TTITLE15=Jazz Orkest Rob Pronk - One For Maya
EXTD=YEAR: 1999
EXTT0=
EXTT1=
EXTT2=
EXTT3=
EXTT4=
EXTT5=
EXTT6=
EXTT7=
EXTT8=
EXTT9=
EXTT10=
EXTT11=
EXTT12=
EXTT13=
EXTT14=
EXTT15=
PLAYORDER=
